<svg xmlns="http://www.w3.org/2000/svg" viewBox="0 0 64 64" role="img" aria-label="Credio favicon">
  <defs>
    <linearGradient id="g" x1="0" x2="1" y1="0" y2="1">
      <stop offset="0%" stop-color="#2C3A20"/>
      <stop offset="100%" stop-color="#7AAF52"/>
    </linearGradient>
  </defs>
  <rect width="64" height="64" rx="16" fill="#F4F6F2"/>
  <rect x="8" y="8" width="48" height="48" rx="14" fill="url(#g)"/>
  <path d="M41.5 22.5c-2.4-2.4-5.6-3.5-9.6-3.5-7.5 0-12.9 5.4-12.9 13s5.4 13 12.9 13c4 0 7.2-1.2 9.7-3.6l-3.8-3.9c-1.6 1.4-3.3 2.1-5.6 2.1-4.3 0-7.3-3.1-7.3-7.6s3-7.6 7.3-7.6c2.2 0 4 .7 5.6 2.1l3.7-4z" fill="#fff"/>
  <circle cx="45.5" cy="32" r="3.2" fill="#fff" opacity="0.95"/>
</svg>
